<?xml version="1.0" standalone="no"?>
<!DOCTYPE svg PUBLIC "-//W3C//DTD SVG 20010904//EN"
 "http://www.w3.org/TR/2001/REC-SVG-20010904/DTD/svg10.dtd">
<svg version="1.0" xmlns="http://www.w3.org/2000/svg"
 width="1920.000000pt" height="1256.000000pt" viewBox="0 0 1920.000000 1256.000000"
 preserveAspectRatio="xMidYMid meet">

<g transform="translate(0.000000,1256.000000) scale(0.100000,-0.100000)"
fill="#000000" stroke="none">
<path d="M8126 8685 c-21 -8 -57 -31 -78 -52 -77 -73 -377 -488 -491 -679 -36
-60 -38 -61 -109 -82 -40 -11 -131 -31 -203 -43 -140 -23 -186 -42 -210 -89
-31 -60 -9 -123 54 -158 49 -27 89 -33 153 -23 29 5 54 8 56 7 1 -2 -52 -115
-119 -252 -256 -527 -342 -804 -343 -1109 0 -122 3 -147 22 -196 29 -73 91
-143 156 -177 43 -22 63 -26 131 -25 146 1 255 61 431 237 217 218 464 582
464 684 0 71 -85 107 -144 61 -14 -11 -64 -79 -110 -149 -231 -352 -383 -510
-517 -535 -50 -9 -103 15 -125 56 -25 49 -14 211 24 354 82 301 318 825 505
1116 l36 57 118 37 c219 69 468 133 562 144 51 7 106 18 122 27 84 43 76 174
-13 214 -24 11 -60 20 -82 20 -60 0 -230 -28 -353 -58 -62 -15 -113 -25 -113
-22 0 8 40 67 147 217 97 136 173 269 173 304 0 40 -50 107 -90 121 -9 3 -33
0 -54 -7z"/>
<path d="M4303 7871 c-34 -22 -94 -97 -138 -176 -16 -27 -88 -151 -160 -275
-275 -470 -405 -711 -635 -1175 -347 -702 -687 -1469 -806 -1820 -74 -218 -72
-282 6 -349 37 -31 64 -33 105 -8 42 26 70 82 179 362 172 443 366 892 560
1293 l86 179 29 -21 c202 -144 457 -86 762 175 181 154 348 382 494 673 110
218 152 375 142 530 -7 126 -41 191 -120 234 -36 19 -57 22 -142 21 -117 0
-181 -21 -309 -99 -43 -26 -79 -45 -80 -43 -2 1 34 68 81 148 97 169 118 227
104 291 -6 24 -20 52 -32 62 -28 23 -86 22 -126 -2z m300 -652 c27 -34 22
-108 -17 -224 -120 -357 -426 -763 -660 -874 -109 -53 -230 -51 -292 3 l-27
22 137 258 c198 373 288 508 433 652 65 64 209 173 232 174 3 1 28 7 56 14 59
16 113 6 138 -25z"/>
<path d="M11275 7676 c-318 -73 -665 -424 -890 -898 -138 -293 -193 -608 -136
-779 46 -140 144 -219 271 -219 81 0 115 11 197 62 96 60 228 216 329 388 l31
53 -5 -120 c-3 -79 0 -139 8 -174 40 -172 167 -298 318 -316 61 -7 110 9 147
47 24 25 29 38 28 81 -1 66 -22 94 -105 139 -36 19 -73 41 -82 49 -30 25 -66
109 -72 168 -16 154 106 542 253 807 86 156 99 211 63 280 l-19 38 24 73 c14
41 25 84 25 97 0 80 -68 175 -150 210 -58 25 -160 31 -235 14z m81 -325 c33
-20 84 -80 84 -99 0 -6 -10 -19 -23 -29 -51 -40 -94 -112 -240 -398 -84 -165
-179 -342 -211 -393 -148 -238 -275 -344 -375 -314 -64 20 -84 81 -70 217 22
213 182 542 389 798 156 193 339 283 446 218z"/>
<path d="M14945 7676 c-215 -49 -435 -216 -647 -491 -116 -150 -267 -432 -327
-610 -69 -207 -93 -446 -57 -566 23 -77 81 -157 140 -194 40 -24 62 -30 122
-33 88 -5 129 7 216 65 99 65 192 174 312 365 l42 67 -4 -130 c-4 -114 -2
-138 18 -200 52 -160 195 -279 336 -279 102 0 165 77 142 170 -12 45 -40 71
-125 114 -83 42 -133 128 -133 231 0 164 124 544 252 773 91 162 104 216 68
287 -20 39 -20 40 -1 90 30 81 35 129 17 183 -43 127 -204 196 -371 158z m73
-320 c31 -16 64 -50 81 -83 10 -20 7 -27 -28 -62 -49 -49 -93 -125 -216 -371
-225 -451 -361 -646 -489 -706 -59 -28 -86 -30 -125 -9 -26 13 -40 36 -56 93
-12 40 15 205 50 310 81 243 297 586 458 727 77 68 177 115 244 115 30 0 66
-6 81 -14z"/>
<path d="M5933 7586 c-79 -19 -209 -86 -303 -156 -182 -136 -419 -393 -525
-572 -104 -175 -156 -328 -176 -517 -18 -169 13 -302 89 -393 46 -54 136 -105
219 -124 152 -34 317 -3 518 96 211 103 394 240 586 437 116 120 159 174 198
250 26 53 27 83 0 117 -22 28 -64 35 -102 15 -12 -7 -107 -99 -212 -205 -199
-201 -298 -282 -430 -351 -124 -64 -209 -86 -314 -81 -110 5 -171 33 -218 103
-28 40 -33 56 -33 105 l0 57 78 28 c124 44 278 120 386 192 196 130 402 365
497 569 83 177 85 299 6 378 -64 64 -147 80 -264 52z m41 -328 c14 -40 -6 -93
-75 -199 -71 -107 -202 -243 -307 -316 -39 -28 -114 -69 -165 -91 -152 -66
-146 -69 -88 46 108 216 261 407 413 515 84 60 124 77 173 74 33 -2 41 -6 49
-29z"/>
<path d="M8815 7512 c-185 -113 -607 -870 -790 -1417 -65 -193 -85 -307 -61
-353 22 -42 63 -72 100 -72 66 0 128 62 172 171 100 252 221 464 376 660 65
83 321 339 338 339 5 0 -34 -83 -86 -183 -172 -335 -276 -608 -278 -730 -1
-63 1 -70 27 -93 47 -40 122 -29 174 28 12 12 54 82 93 153 154 278 304 478
530 706 85 86 175 171 200 190 l45 34 -34 -45 c-123 -165 -202 -315 -245 -464
-79 -271 -50 -495 86 -667 107 -135 292 -85 280 76 -1 11 -29 56 -61 99 -68
91 -82 134 -83 252 0 239 158 517 507 894 156 168 189 235 150 310 -23 44 -67
63 -136 58 -140 -10 -387 -179 -711 -486 -62 -58 -131 -122 -152 -141 l-39
-36 38 72 c21 39 85 134 142 210 56 76 110 157 119 179 15 39 15 44 -1 78 -20
43 -59 66 -109 66 -101 0 -410 -226 -683 -499 -62 -62 -113 -109 -113 -105 0
15 130 254 196 360 164 266 175 294 133 348 -25 32 -79 35 -124 8z"/>
<path d="M12491 7516 c-81 -45 -234 -253 -399 -541 -101 -178 -143 -263 -241
-483 -192 -433 -263 -698 -206 -774 36 -48 91 -61 143 -34 56 29 70 52 187
316 93 211 240 436 394 605 59 65 254 246 259 240 2 -2 -27 -61 -66 -132 -171
-314 -303 -655 -306 -786 -1 -64 1 -70 27 -93 47 -40 122 -29 173 28 12 12 54
82 94 153 159 286 306 481 540 716 91 91 179 176 197 188 28 19 22 8 -40 -82
-131 -186 -203 -351 -232 -532 -33 -202 -5 -356 92 -502 84 -126 214 -150 284
-52 38 54 30 98 -34 182 -65 85 -76 109 -87 197 -33 249 129 556 505 960 152
163 187 232 153 305 -34 76 -140 85 -271 23 -162 -77 -311 -195 -669 -528 -56
-52 -99 -88 -95 -78 13 35 107 179 195 295 50 68 96 139 101 160 19 68 -35
133 -112 133 -100 0 -387 -206 -664 -478 -73 -71 -133 -128 -133 -126 0 16
115 227 195 359 141 231 155 256 155 293 0 66 -75 103 -139 68z"/>
</g>
</svg>
